<svg width="163" height="23" viewBox="0 0 163 23" xmlns="http://www.w3.org/2000/svg"><path d="M24 11.983c0-1.742.28-3.288.837-4.637.56-1.35 1.31-2.486 2.255-3.41.944-.924 2.034-1.63 3.27-2.12 1.233-.488 2.527-.732 3.88-.732 1.33 0 2.538.27 3.623.812 1.084.542 2.002 1.185 2.753 1.928l-3.027 3.38c-.514-.448-1.02-.793-1.513-1.037-.494-.244-1.084-.367-1.77-.367-.624 0-1.22.138-1.79.415-.568.276-1.06.67-1.48 1.18-.42.51-.752 1.136-.998 1.88-.248.743-.372 1.582-.372 2.517 0 1.955.414 3.453 1.24 4.494.827 1.04 1.916 1.56 3.27 1.56.815 0 1.518-.153 2.108-.46.59-.31 1.112-.707 1.562-1.196l3.028 3.315c-.902 1.02-1.933 1.784-3.092 2.294-1.16.51-2.383.764-3.67.764-1.376 0-2.674-.218-3.898-.653-1.224-.435-2.298-1.093-3.22-1.975-.924-.882-1.654-1.987-2.19-3.315-.538-1.328-.806-2.873-.806-4.637zm16.75 2.23c0-1.316.22-2.495.662-3.536.44-1.042 1.03-1.918 1.77-2.63.742-.712 1.595-1.253 2.56-1.625.967-.372 1.966-.558 2.996-.558s2.024.186 2.98.558c.955.372 1.803.913 2.544 1.625.74.712 1.336 1.588 1.787 2.63.45 1.04.675 2.22.675 3.537 0 1.317-.225 2.497-.676 3.538-.452 1.04-1.048 1.917-1.788 2.63-.74.71-1.59 1.253-2.545 1.624-.955.372-1.948.558-2.98.558-1.03 0-2.028-.186-2.994-.558-.966-.37-1.82-.913-2.56-1.625-.74-.71-1.33-1.587-1.77-2.628-.442-1.04-.662-2.22-.662-3.538zm5.67 0c0 1.212.177 2.174.53 2.885.355.712.95 1.068 1.788 1.068.838 0 1.434-.356 1.788-1.068.354-.71.53-1.673.53-2.884 0-1.21-.176-2.172-.53-2.884-.354-.712-.95-1.068-1.788-1.068-.837 0-1.433.356-1.787 1.068-.353.712-.53 1.673-.53 2.884zm11.787 0c0-1.295.188-2.464.564-3.505.377-1.04.87-1.917 1.482-2.63.612-.71 1.316-1.258 2.11-1.64.794-.383 1.6-.574 2.415-.574.88 0 1.6.144 2.158.43.558.287 1.084.675 1.578 1.164l-.193-2.295V0h5.54v22.182h-4.51l-.386-1.466h-.13c-.557.552-1.196.998-1.915 1.338-.72.34-1.434.51-2.143.51-1.01 0-1.916-.19-2.72-.574-.806-.382-1.493-.934-2.062-1.657-.57-.722-1.01-1.6-1.32-2.63-.312-1.03-.468-2.193-.468-3.49zm5.67-.063c0 1.445.208 2.465.627 3.06.418.595 1.003.892 1.755.892.428 0 .804-.08 1.126-.24.322-.158.633-.46.934-.907V11.09c-.322-.297-.676-.498-1.063-.605-.386-.106-.762-.16-1.127-.16-.58 0-1.1.288-1.562.86-.462.575-.692 1.563-.692 2.965zm11.726.064c0-1.296.22-2.46.66-3.49.44-1.03 1.02-1.907 1.74-2.63.718-.72 1.54-1.274 2.463-1.656.923-.383 1.88-.574 2.866-.574 1.18 0 2.212.202 3.092.606.88.403 1.61.956 2.19 1.657.58.7 1.014 1.52 1.304 2.454.29.936.435 1.934.435 2.997 0 .488-.027.924-.08 1.306-.054.383-.102.67-.145.86h-9.18c.26 1.02.72 1.722 1.386 2.104.665.383 1.45.574 2.35.574.56 0 1.1-.08 1.627-.238.527-.16 1.08-.398 1.66-.717l1.803 3.25c-.88.617-1.85 1.08-2.914 1.387-1.064.308-2.046.462-2.948.462-1.18 0-2.276-.186-3.285-.558-1.01-.37-1.884-.913-2.625-1.625-.74-.71-1.326-1.587-1.755-2.628-.43-1.04-.644-2.22-.644-3.538zM85.65 12.43c0-.68-.155-1.254-.466-1.722-.31-.467-.886-.7-1.723-.7-.622 0-1.164.18-1.625.54-.462.362-.78.99-.95 1.88h4.766zm9.556-6.375h-5.54v-4.59h16.62v4.59h-5.54v16.127h-5.54V6.055zm12.072.192h4.508l.387 2.74h.13c.6-1.083 1.314-1.875 2.14-2.374.827-.5 1.637-.75 2.432-.75.494 0 .89.028 1.192.08.3.054.568.134.805.24l-.902 4.717c-.3-.064-.585-.123-.854-.176-.268-.053-.585-.08-.95-.08-.58 0-1.186.197-1.82.59-.633.393-1.143 1.09-1.53 2.088v8.86h-5.538V6.247zm11.736 11.41c0-1.658.687-2.96 2.06-3.905 1.375-.945 3.608-1.578 6.7-1.896-.13-1.105-.88-1.658-2.255-1.658-.58 0-1.192.112-1.836.335-.644.223-1.385.558-2.222 1.004l-1.933-3.57c1.137-.68 2.286-1.2 3.445-1.56 1.16-.362 2.373-.543 3.64-.543 2.082 0 3.72.59 4.91 1.77 1.192 1.178 1.788 3.074 1.788 5.688v8.86h-4.51l-.385-1.53h-.13c-.643.574-1.325 1.036-2.044 1.386-.72.35-1.52.526-2.4.526-.75 0-1.427-.133-2.028-.398-.6-.266-1.11-.622-1.53-1.068-.42-.446-.735-.967-.95-1.562-.215-.594-.322-1.22-.322-1.88zm5.282-.447c0 .765.493 1.147 1.48 1.147.452 0 .822-.1 1.112-.303.29-.2.585-.462.886-.78v-2.168c-1.33.192-2.244.48-2.738.86-.493.383-.74.798-.74 1.244zm10.552-2.996c0-1.317.236-2.496.708-3.537.473-1.042 1.106-1.918 1.9-2.63.795-.712 1.713-1.253 2.754-1.625 1.04-.372 2.13-.558 3.27-.558.965 0 1.85.16 2.656.478.805.32 1.487.754 2.045 1.307l-2.51 3.377c-.366-.297-.694-.5-.983-.605-.29-.107-.585-.16-.886-.16-1.03 0-1.835.356-2.414 1.068-.58.712-.87 1.673-.87 2.884 0 1.21.295 2.173.886 2.884.59.712 1.325 1.068 2.206 1.068.515 0 .982-.106 1.4-.32.42-.21.81-.445 1.176-.7l2.19 3.442c-.816.7-1.712 1.206-2.69 1.514-.976.308-1.883.462-2.72.462-1.138 0-2.2-.186-3.19-.558-.986-.37-1.845-.913-2.575-1.625-.73-.71-1.306-1.587-1.724-2.628-.42-1.04-.628-2.22-.628-3.538zm13.19 0c0-1.296.22-2.46.66-3.49.44-1.03 1.02-1.907 1.74-2.63.72-.72 1.54-1.274 2.464-1.656.923-.383 1.878-.574 2.866-.574 1.18 0 2.212.202 3.092.606.88.403 1.61.956 2.19 1.657.58.7 1.014 1.52 1.304 2.454.29.936.435 1.934.435 2.997 0 .488-.028.924-.082 1.306-.053.383-.102.67-.144.86h-9.18c.26 1.02.72 1.722 1.386 2.104.665.383 1.45.574 2.35.574.56 0 1.1-.08 1.627-.238.526-.16 1.08-.398 1.66-.717l1.802 3.25c-.88.617-1.853 1.08-2.915 1.387-1.063.308-2.045.462-2.947.462-1.18 0-2.276-.186-3.285-.558-1.01-.37-1.884-.913-2.625-1.625-.74-.71-1.326-1.587-1.755-2.628-.43-1.04-.644-2.22-.644-3.538zm10.05-1.785h-4.768c.172-.893.49-1.52.95-1.88.462-.362 1.004-.543 1.627-.543.837 0 1.412.234 1.723.7.31.47.467 1.042.467 1.722zM9 0h5L5 23H0L9 0zm9 0h5l-9 23H9l9-23z" fill="#FFF" fill-rule="evenodd"/></svg>