<svg height="512pt" viewBox="0 -51 512 512" width="512pt" xmlns="http://www.w3.org/2000/svg"><path d="m176.214844 290 10.605468-10.605469c17.542969-17.546875 17.542969-46.09375 0-63.640625-17.546874-17.546875-46.09375-17.546875-63.640624 0-17.542969 17.542969-17.542969 46.09375 0 63.640625l10.605468 10.605469-24.390625 24.394531c-5.859375 5.855469-5.859375 15.351563 0 21.210938 5.855469 5.859375 15.355469 5.859375 21.210938 0l24.394531-24.390625 24.394531 24.390625c2.925781 2.929687 6.765625 4.394531 10.605469 4.394531s7.679688-1.464844 10.605469-4.394531c5.859375-5.855469 5.859375-15.355469 0-21.210938zm-31.820313-53.03125c2.921875-2.925781 6.765625-4.390625 10.605469-4.390625s7.683594 1.464844 10.605469 4.390625c5.847656 5.847656 5.847656 15.363281 0 21.210938l-10.605469 10.605468-10.605469-10.605468c-5.847656-5.847657-5.847656-15.363282 0-21.210938zm0 0"/><path d="m75 170h160c8.285156 0 15-6.714844 15-15s-6.714844-15-15-15h-160c-8.285156 0-15 6.714844-15 15s6.714844 15 15 15zm0 0"/><path d="m75 110h160c8.285156 0 15-6.714844 15-15s-6.714844-15-15-15h-160c-8.285156 0-15 6.714844-15 15s6.714844 15 15 15zm0 0"/><path d="m497 0h-482c-8.285156 0-15 6.714844-15 15v380c0 8.285156 6.714844 15 15 15h482c8.285156 0 15-6.714844 15-15v-380c0-8.285156-6.714844-15-15-15zm-15 380h-452v-350h452zm0 0"/><path d="m332 210.960938v114.039062c0 5.820312 3.367188 11.113281 8.636719 13.585938 5.273437 2.46875 11.496093 1.664062 15.964843-2.0625l20.398438-17 20.398438 17c2.75 2.289062 6.160156 3.476562 9.605468 3.476562 2.15625 0 4.328125-.464844 6.359375-1.414062 5.269531-2.472657 8.636719-7.765626 8.636719-13.585938v-114.039062c18.203125-13.699219 30-35.476563 30-59.960938 0-41.355469-33.644531-75-75-75s-75 33.644531-75 75c0 24.484375 11.796875 46.261719 30 59.960938zm60 82.015624-5.398438-4.5c-5.5625-4.632812-13.640624-4.632812-19.203124 0l-5.398438 4.5v-68.484374c4.847656.988281 9.863281 1.507812 15 1.507812s10.152344-.519531 15-1.507812zm-15-186.976562c24.8125 0 45 20.1875 45 45s-20.1875 45-45 45-45-20.1875-45-45 20.1875-45 45-45zm0 0"/></svg>